<svg width="1280" height="640" viewBox="0 0 1280 640" fill="none" xmlns="http://www.w3.org/2000/svg">
  <rect width="1280" height="640" fill="#F8FAFC"/>
  <rect x="48" y="48" width="1184" height="504" rx="36" fill="#FFFFFF" stroke="#D9E2EC" stroke-width="2"/>

  <rect x="88" y="88" width="236" height="44" rx="22" fill="#DCFCE7"/>
  <circle cx="116" cy="110" r="9" fill="#16A34A"/>
  <text x="140" y="118" font-family="Inter, Arial, sans-serif" font-size="20" font-weight="800" fill="#166534">Lexmount Open Source</text>

  <text x="88" y="222" font-family="Inter, Arial, sans-serif" font-size="60" font-weight="900" fill="#0F172A">browseruse-agent-bench</text>
  <text x="92" y="282" font-family="Inter, Arial, sans-serif" font-size="34" font-weight="700" fill="#334155">Evaluation framework for browser agents</text>

  <rect x="90" y="324" width="348" height="54" rx="27" fill="#EFF6FF" stroke="#BFDBFE"/>
  <text x="120" y="360" font-family="Inter, Arial, sans-serif" font-size="24" font-weight="800" fill="#1D4ED8">LexBench-Browser dataset</text>

  <rect x="468" y="324" width="178" height="54" rx="27" fill="#F0FDF4" stroke="#BBF7D0"/>
  <text x="500" y="360" font-family="Inter, Arial, sans-serif" font-size="24" font-weight="800" fill="#15803D">208 tasks</text>

  <rect x="676" y="324" width="198" height="54" rx="27" fill="#FFF7ED" stroke="#FED7AA"/>
  <text x="708" y="360" font-family="Inter, Arial, sans-serif" font-size="24" font-weight="800" fill="#C2410C">107 websites</text>

  <text x="92" y="447" font-family="Inter, Arial, sans-serif" font-size="30" font-weight="700" fill="#0F172A">Run agents. Submit results. Compare browser backends.</text>
  <text x="92" y="494" font-family="Inter, Arial, sans-serif" font-size="22" font-weight="600" fill="#64748B">browser-use / Skyvern / Agent-TARS / local Chrome / cloud / CDP</text>

  <g transform="translate(914 132)">
    <rect x="0" y="0" width="242" height="376" rx="24" fill="#0F172A"/>
    <rect x="24" y="34" width="194" height="16" rx="8" fill="#22C55E"/>
    <rect x="24" y="78" width="146" height="16" rx="8" fill="#60A5FA"/>
    <rect x="24" y="122" width="170" height="16" rx="8" fill="#F97316"/>
    <rect x="24" y="166" width="118" height="16" rx="8" fill="#A78BFA"/>
    <rect x="24" y="230" width="194" height="94" rx="16" fill="#FFFFFF"/>
    <text x="48" y="270" font-family="Inter, Arial, sans-serif" font-size="20" font-weight="800" fill="#0F172A">Leaderboard</text>
    <text x="48" y="300" font-family="Inter, Arial, sans-serif" font-size="16" font-weight="700" fill="#64748B">reviewed runs</text>
  </g>

  <path d="M890 188C854 186 824 196 802 218C780 240 770 270 772 308" stroke="#CBD5E1" stroke-width="6" stroke-linecap="round"/>
  <path d="M790 291L772 312L752 294" stroke="#CBD5E1" stroke-width="6" stroke-linecap="round" stroke-linejoin="round"/>

  <text x="88" y="532" font-family="Inter, Arial, sans-serif" font-size="22" font-weight="700" fill="#64748B">github.com/lexmount/browseruse-agent-bench</text>
</svg>
